<?xml version="1.0" encoding="iso-8859-1"?>
<!-- Generator: Adobe Illustrator 19.0.0, SVG Export Plug-In . SVG Version: 6.00 Build 0)  -->
<svg version="1.1" id="Capa_1" xmlns="http://www.w3.org/2000/svg" xmlns:xlink="http://www.w3.org/1999/xlink" x="0px" y="0px"
	 viewBox="0 0 512.002 512.002" style="enable-background:new 0 0 512.002 512.002;" xml:space="preserve">
<path style="fill:#EB3840;" d="M50.699,242.743c20.008-3.722,44.451-1.531,64.822-0.53c42.257,2.077,85.012-0.67,127.357-0.826
	c51.597-0.191,103.172,0.082,154.748,1.98c8.255,0.304,17.59-1.337,23.766,3.527c6.86,5.404,11.922,16.42,16.816,23.523
	c5.271,7.651,10.712,15.198,15.96,22.792c4.658,6.74,10.874,12.861,14.326,20.389c7.64,16.664,4.669,38.447,3.406,56.218
	c-0.779,10.97-0.611,21.793-0.852,32.774c-0.076,3.475,0.965,14.168-2.036,16.916c-4.905,4.49-21.913,2.511-28.597,3.068
	c-6.516,0.543-13.131,2.638-18.431,0.356c-6.216-2.677-11.105-9.262-17.204-12.494c-6.234-3.303-13.519-5.305-20.526-6.098
	c-22.803-2.583-41.47,16.587-49.332,36.663c-3.6,9.193-0.9,19.309-12.087,20.422c-20.3,2.02-41.135-0.881-61.594,0.761
	c-31.174,2.501-63.564,1.539-94.626-0.18c-1.61-24.54-13.191-56.384-40.814-59.889c-9.976-1.266-19.568,1.788-28.205,6.799
	c-10.498,6.091-9.552,14.346-15.192,23.511c-5.358,8.707-17.798,2.852-26.638,1.717c-4.637-0.595-14.125,1.533-18.032-1.035
	c-4.683-3.078-2.613-11.689-2.811-17.513c-0.503-14.793-1.936-29.547-1.936-44.357c0-13.199,0.656-26.191,1.304-39.276
	c0.639-12.902,0.824-26.588-0.096-39.47c-1.076-15.073-7.534-33.394-1.055-48.131C35.909,238.06,41.307,241.739,50.699,242.743z"/>
<g>
	<path style="fill:#E4EDF1;" d="M427.091,424.807c8.237-2.475,20.132,0.134,28.566,0.555c7.591,0.379,25.296,0.31,30.999,6.882
		c4.605,5.307,5.042,16.065-0.146,20.677c-6.553,5.824-17.007,7.261-25.314,8.173c-7.697,0.845-15.523,0.501-23.256,0.501
		c-3.456,0-7.201,0.957-9.728-1.635c-3.195-3.277-3.051-14.412-3.776-18.65C423.777,437.449,419.576,425.533,427.091,424.807z"/>
	<path style="fill:#E4EDF1;" d="M36.733,428.384c6.048-0.332,12.752,1.205,18.649,2.3c2.934,0.545,16.63,1.409,18.557,3.947
		c1.95,2.567-4.403,21.053-5.517,24.906c-2.546,8.808-12.556,5.667-20.667,5.635c-10.727-0.043-26.631,0.082-30.563-11.88
		C12.161,437.981,25.709,429.938,36.733,428.384z"/>
</g>
<g>
	<path style="fill:#7C8B96;" d="M402.055,406.414c7.436-0.665,17.917,13.848,21.484,19.403c5.559,8.658,7.134,20.311,7.129,30.358
		c-0.011,19.527-8.107,37.109-27.477,44.276c-11.13,4.118-27.593,4.506-39.073,1.011c-9.405-2.863-17.027-9.595-22.112-17.888
		c-7.534-12.286-10.036-27.973-6.336-41.938c1.863-7.032,5.602-11.58,9.459-17.378c4.265-6.412,7.059-12.096,14.236-15.914
		c5.764-3.067,11.122-4.766,17.551-5.49C386.848,401.734,391.543,402.787,402.055,406.414z"/>
	<path style="fill:#7C8B96;" d="M136.878,408.968c11.015,1.06,20.265,16.439,23.821,25.589c3.863,9.938,6.196,25.904,3.642,36.3
		c-5.028,20.464-21.309,29.602-41.351,29.57c-19.018-0.031-32.933-6.226-44.659-21.797c-10.715-14.229-9.677-33.227-1.439-48.527
		c4.673-8.679,11.113-19.02,20.652-22.647C112.412,401.801,126.372,406.868,136.878,408.968z"/>
</g>
<g>
	<path style="fill:#637079;" d="M372.931,490.136c18.746-0.915,33.344-7.576,38.886-26.951c3.993-13.959,0.648-35.188-13.756-42.048
		c-3.106-1.479-0.768-5.742,2.196-5.209c21.313,3.835,29.403,34.061,25.236,52.435c-5.353,23.602-31.46,45.586-55.692,33.332
		C363.994,498.759,367.175,490.417,372.931,490.136z"/>
	<path style="fill:#637079;" d="M385.279,433.92c0.645,0.714,0.617,1.966-0.317,2.458c-3.286,1.732-6.343,1.798-9.821,2.791
		c-3.511,1.002-6.55,3.341-8.89,6.102c-4.451,5.254-3.461,11.41-3.626,17.858c-0.151,5.839-7.164,7.062-10.31,2.792
		C338.062,446.571,367.761,414.527,385.279,433.92z"/>
	<path style="fill:#637079;" d="M123.76,490.142c12.005-8.292,23.227-14.258,25.027-30.121c0.833-7.335-0.364-15.026-3.021-21.9
		c-3.032-7.845-9.332-13.689-11.232-22.006c-0.448-1.961,1.728-3.007,3.175-1.849c16.927,13.544,29.67,29.244,26.894,52.446
		c-2.196,18.353-17.098,33.575-34.859,37.627C120.961,506.345,116.542,495.128,123.76,490.142z"/>
	<path style="fill:#637079;" d="M92.54,439.837c6.567-9.55,17.424-11.464,28.057-9.467c1.981,0.372,1.944,3.026,0.52,3.984
		c-5.826,3.916-15.323,5.462-18.044,12.727c-2.243,5.991,0.355,12.115-2.824,18.019c-1.399,2.598-5.724,3.414-7.724,0.995
		C86.676,459.019,87.421,447.282,92.54,439.837z"/>
</g>
<g>
	<path style="fill:#E4EDF1;" d="M365.261,449.531c2.378-6.779,8.983-12.58,16.452-12.396c17.61,0.434,21.409,31.616,3.54,35.246
		c-7.083,1.439-14.666-1.765-18.495-7.928c-1.559-2.509-2.289-5.376-2.317-8.27C364.249,453.983,364.494,451.718,365.261,449.531z"
		/>
	<path style="fill:#E4EDF1;" d="M102.172,450.741c0.432-2.144,1.263-4.183,2.494-5.983c1.568-2.902,4.04-5.23,7.494-6.35
		c5.928-1.921,11.459,0.647,15.275,4.985c0.031,0.035,0.058,0.072,0.088,0.107c2.822,3.252,4.693,7.468,5.04,11.549
		c0.028,0.333,0.006,0.649,0.014,0.975c0.427,9.3-5.907,18.516-16.497,16.886C105.493,471.281,99.87,460.186,102.172,450.741z"/>
</g>
<g>
	<path style="fill:#CAD6DD;" d="M380.611,455.102c0.922-1.716,1.278-3.407,1.139-5.359c-0.066-0.923-0.265-1.82-0.483-2.72
		c-0.135-0.56-1.403-2.399-0.331-1.095c-1.399-1.701-1.698-4.958,0.78-6.056c8.73-3.868,13.453,5.655,14.029,13.049
		c0.679,8.717-6.392,19.729-15.659,20.29c-2.209,0.134-4.182-1.647-4.796-3.651C373.411,463.423,378.018,459.92,380.611,455.102z"/>
	<path style="fill:#CAD6DD;" d="M115.38,463.612c0.957-3.831,3.576-5.79,3.295-9.369c-0.158-2.014-0.779-4.186-1.341-6.12
		c-0.208-0.715-0.417-1.387-0.672-2.085c-0.329-0.904-1.926-2.791-0.158-0.858c-0.971-1.062-1.481-2.983-0.55-4.266
		c6.234-8.594,13.778,3.418,16.202,8.908c2.107,4.771,2.978,9.881,0.489,14.715c-2.521,4.895-7.843,7.431-13.168,6.293
		C116.325,470.156,114.648,466.545,115.38,463.612z"/>
</g>
<path style="fill:#E4EDF1;" d="M440.376,205.104c11.044,0.386,17.793,20.428,12.104,28.511c-5.063,7.193-15.387,8.302-23.429,8.686
	c-16.964,0.809-33.841,2.414-50.828,3.056c-45.583,1.721-90.401,1.796-135.989-0.909c-38.492-2.284-77.345-3.59-115.91-3.578
	c-31.243,0.01-62.833,3.725-94.035,0.523c-5.907-0.606-11.764-1.55-14.409-7.72c-2.234-5.212-1.72-17.237,0.563-22.786
	c2.718-6.605,8.842-5.893,15.031-6.891c18.067-2.916,36.11-3.901,54.422-4.398c19.185-0.52,38.362-1.148,57.558-1.135
	c23.523,0.015,46.65,2.172,70.119,3.206c21.819,0.961,42.742-1.388,64.515-0.964c23.955,0.467,47.914,0.696,71.873,0.783
	c14.867,0.054,29.063,1.113,43.87,0.322c7.887-0.421,15.806-0.643,23.695-0.142C426.479,202.107,433.604,204.867,440.376,205.104z"
	/>
<g>
	<path style="fill:#CAD6DD;" d="M433.379,447.087c8.118-1.824,17.377-0.94,25.807-2.092c8.757-1.197,17.644-3.664,26.393-1.265
		c4.898,1.343,4.092,7.506,0,9.161c-9.517,3.85-19.935,6.508-30.029,8.297c-8.627,1.529-18.2,4.017-25.302-2.239
		C426.306,455.477,428.335,448.22,433.379,447.087z"/>
	<path style="fill:#CAD6DD;" d="M26.012,446.548c13.073,3.951,28.541-1.34,41.137,4.959c2.744,1.373,2.813,5.166,0.927,7.197
		c-6.574,7.081-17.612,5.449-26.368,5.62c-7.27,0.143-15.517,1.132-22.126-2.522C11.358,457.254,16.899,443.793,26.012,446.548z"/>
	<path style="fill:#CAD6DD;" d="M27.218,221.555c9.273-7.491,20.561-4.122,31.537-4.013c18.81,0.187,37.624,0.471,56.432,0.775
		c37.608,0.607,75.192,2.147,112.789,3.162c37.497,1.013,74.885,0.763,112.382,0.2c36.568-0.549,72.921,1.922,109.215,6.098
		c6.25,0.719,6.39,9.258,0,9.836c-4.725,0.427-9.451,0.726-14.178,0.939c-0.677,0.613-1.507,1.085-2.522,1.309
		c-17.378,3.835-35.615,3.143-53.346,4.318c-17.165,1.137-34.267,2.448-51.479,2.618c-35.65,0.352-71.358-1.639-106.919-3.95
		c-35.598-2.313-71.244-5.285-106.937-5.392c-17.094-0.051-34.261,0.072-51.345,0.592c-11.436,0.348-23.429,2.935-33.898-3.068
		C24.572,232.468,22.879,225.061,27.218,221.555z"/>
</g>
<path style="fill:#10537E;" d="M398.989,268.46c11.32,8.689,18.987,24.318,27.447,35.744c5.21,7.037,11.762,13.421,14.666,21.948
	c2.248,6.601,1.773,15.831,1.317,22.909c-0.244,3.791,0.064,5.88-3.767,7.497c-5.188,2.19-15.113,0.295-20.789,0.295
	c-20.407,0-40.566,2.71-61.025,1.533c-4.786-0.275-5.355-0.108-6.15-5.362c-1.522-10.053-0.754-20.663-1.234-30.803
	c-0.687-14.5-5.389-29.683-3.62-44.289c0.767-6.335,3.53-8.238,9.51-9.727c5.474-1.363,11.303-1.884,16.935-2.568
	c5.45-0.662,10.488-0.142,15.903-0.189C392.246,265.412,396.483,263.668,398.989,268.46z"/>
<g>
	<path style="fill:#E4EDF1;" d="M377.019,357.874c-0.742-8.479-3.241-20.974-5.223-30.528c-1.212-5.844-1.291-14.664-6.268-18.783
		c-2.59-2.143-14.856-5.214-17.529-1.68c-2.037,2.694,1.225,14.503,1.671,17.915c0.988,7.571,2.236,14.686,3.986,22.099
		c0.953,4.036,0.962,7.546,3.949,9.943C363.344,361.446,370.291,355.349,377.019,357.874z"/>
	<path style="fill:#E4EDF1;" d="M395.924,357.874c0.015-7.778,2.63-16.751,4.215-24.399c0.778-3.757,1.96-15.112,4.766-17.503
		c2.966-2.527,13.491-0.909,14.532,2.549c1.15,3.821-3.197,11.478-3.86,15.341c-0.781,4.551-0.678,4.111,3.214,6.243
		c6.68,3.658,14.875,4.341,21.508,7.143c-2.135,9.85-8.484,9.782-17.707,10.115C414.346,357.661,403.898,355.511,395.924,357.874z"
		/>
	<path style="fill:#E4EDF1;" d="M72.499,359.24c42.077-0.038,84.093,2.064,126.184,2.223c21.048,0.08,41.968-0.365,62.986-1.486
		c19.235-1.027,39.961-4.081,58.817,0.686c4.227,1.069,4.401,7.76,0,8.73c-18.982,4.182-39.423,3.666-58.817,4.933
		c-21,1.372-41.952,1.43-62.986,1.332c-42.086-0.197-84.109-2.107-126.184-1.776C63.078,373.955,63.063,359.248,72.499,359.24z"/>
</g>
<path style="fill:#CAD6DD;" d="M72.499,364.908c20.815-2.689,43.625,0.763,64.588,1.522c20.182,0.731,40.367,1.469,60.562,1.642
	c19.774,0.17,39.561-0.073,59.323-0.762c10.424-0.363,20.81-0.603,31.241-0.626c9.222-0.021,20.866,1.822,29.573-1.337
	c1.887-0.685,3.215,2.406,1.377,3.269c-6.227,2.921-12.503,2.766-19.299,3.004c-11.017,0.387-22.038,0.565-33.05,1.107
	c-21.688,1.068-43.417,1.494-65.131,1.485c-21.539-0.008-43.07-0.691-64.596-1.371c-21.461-0.679-44.203,1.292-65.434-1.677
	C67.762,370.621,69.312,365.319,72.499,364.908z"/>
<path style="fill:#10537E;" d="M308.042,268.971c6.347,9.111,6.91,23.032,6.255,33.783c-0.731,12.006,0.168,25.183-2.924,36.899
	c-4.959,18.789-28.462,16.276-44.159,17.198c-33.665,1.979-67.456,0.622-101.096-1.035c-23.399-1.153-47.336,0.63-70.578-2.057
	c-11.172-1.292-14.335-6.967-15.772-17.891c-1.97-14.978-1.325-30.994-0.638-46.059c0.246-5.398-0.61-15.043,2.056-19.879
	c2.419-4.389,7.649-4.291,12.307-4.555c22.277-1.262,44.767,0.097,67.138,0.017c26.402-0.094,52.794,1.838,79.172,0.486
	c11.531-0.591,23.272-0.88,34.83-0.371c7.089,0.312,14.191,0.654,21.287,0.922C301.061,266.624,305.64,268.625,308.042,268.971z"/>
<g>
	<path style="fill:#EB3840;" d="M467.523,386.893c-3.626-1.538-8.582-1.268-12.387-0.541c-6.988,1.334-8.101,12.076-8.915,17.796
		c-0.424,2.982-3.248,14.782,0.554,16.848c0.751,0.408,2.374-0.34,3.284-0.403c2.292-0.16,4.494,0.523,6.742,0.816
		c5.002,0.651,11.051,1.742,16.041,1.414c-0.05-4.918-2.833-9.94-3.104-15.097C469.334,400.026,467.351,391.854,467.523,386.893z"/>
	<path style="fill:#EB3840;" d="M40.263,392.779c5.019,0.139,12.036-1.635,16.358,1.292c8.695,5.886,5.414,21.632,4.797,30.245
		c-0.137,1.913,0.304,3.429-1.204,4.315c-1.564,0.92-6.282-0.386-7.905-0.485c-3.236-0.198-7.136,0.432-10.264-0.587
		c-4.24-1.381-3.36-6.889-3.4-11.053C38.574,409.034,37.199,400.063,40.263,392.779z"/>
</g>
<path style="fill:#FF7A49;" d="M182.862,89.12c-1.907-21.884,5.831-37.265,29.48-35.92c0.557-8.663,6.706-17.664,14.037-22.848
	c10.995-7.775,17.848-1.966,28.833-0.603c13.766-31.889,45.791-16.586,70.71-16.479c12.146,0.052,21.396,0.622,29,12.022
	c3.219,4.826,3.092,10.906,7.462,15.031c4.42,4.173,10.257,3.804,13.89,9.429c4.976,7.703,2.813,17.732,1.141,26.122
	c-2.023,10.152-2.352,15.147,0.126,25.036c5.079,20.271-14.476,24.092-23.201,39.535c-4.752,8.412-7.727,14.232-16.148,18.027
	c-11.332,5.107-27.571,6.516-39.983,8.82c-10.275,1.907-16.194,0.7-25.425-2.837c-11.703-4.483-18.277-3.456-30.875-2.729
	c-14.304,0.826-17.155-5.383-28.34-11.833c-5.191-2.994-21.529-3.587-24.11-9.13c-2.38-5.113,6.615-16.172,7.62-22.088
	C198.806,108.51,196.042,87.955,182.862,89.12z"/>
<path style="fill:#E8643F;" d="M374.522,100.086c-0.553-3.431-3.528-5.65-6.798-6.308c-0.737-3.341-2.863-6.382-6.551-6.974
	c-1.261-0.203-2.492-0.298-3.703-0.331c-1.072-0.907-2.275-1.577-3.521-1.766c-5.155-0.781-10.011-0.324-14.575,1.055
	c-1.944-2.468-4.924-4.472-9.269-5.795c-4.352-1.324-8.556-0.911-12.516,0.564c-8.626-5.914-21.6,2.146-28.425,8.811
	c-0.332-0.706-0.696-1.415-1.112-2.13c-1.96-3.363-7.008-5.991-10.918-4.443c-5.588,2.212-10.135,5.362-14.009,9.234
	c-2.395-2.853-6.713-4.188-10.203-3.247c-6.054,1.633-10.682,4.611-14.525,8.346c-3.349-1.817-7.756-1.722-11.248,1.429
	c-0.846,0.764-1.643,1.564-2.418,2.38c-1.545-1.002-3.335-1.604-5.128-1.673c-0.421-0.251-0.883-0.442-1.359-0.603
	c-0.025-0.051-0.037-0.1-0.063-0.15c-2.578-5.135-6.259-9.532-9.993-13.923c-0.571-1.114-1.195-2.199-1.936-3.216
	c-0.809-1.112-2.248-2.314-3.618-3.549c-1.525-1.983-2.976-4.023-4.233-6.203c-5.406-9.366-22.362-3.041-18.061,7.614
	c0.326,0.808,0.658,1.593,0.996,2.36c0.027,0.047,0.056,0.096,0.083,0.143c0.856,1.852,1.865,3.57,3.154,5.204
	c2.204,3.426,4.711,6.883,7.49,10.078c-0.266,1.186-0.34,2.454-0.125,3.791c0.708,4.394,1.34,8.764,2.388,13.093
	c0.923,3.814,3.696,5.895,6.815,6.481c-2.947,5.788-6.021,11.544-7.63,17.882c-2.017,7.948,5.884,12.188,11.819,9.422
	c2.902,1.284,6.355,1.234,9.145-0.882c1.487,1.404,3.395,2.378,5.395,2.77c0.363,0.568,0.77,1.125,1.272,1.654
	c5.092,5.376,11.267,7.838,17.842,9.308c2.842,0.635,5.179,5.436,8.5,6.148c4.29,0.92,8.954-2.21,13.224-2.456
	c9.089-0.525,17.759,4.187,26.781,4.488c11.164,0.372,22.901-2.777,34.079-3.491c7.163-0.458,11.027-7.91,9.291-13.538
	c1.848,0.298,3.857-0.001,5.863-1.228c3.441-2.104,6.155-4.749,8.57-7.697c7.824-6.698,16.221-12.491,22.349-20.546
	c0.675-0.613,1.316-1.322,1.866-2.242C373.49,113.299,375.777,107.867,374.522,100.086z"/>
<path style="fill:#FFFFFF;" d="M93.399,92.077c-3.103,1.449-5.833,3.715-7.677,6.647c-3.953,6.285-5.747,17.252,0.362,22.846
	c4.796,4.391,14.751,6.931,21.094,8.515c-0.492,3.127-3.981,5.782-5.722,8.51c-2.601,4.074-4.004,8.262-3.918,13.141
	c0.115,6.588,3.612,15.734,10.295,18.519c8.271,3.447,21.436,0.392,27.064-6.679c4.443-5.581,4.294-15.014,4.613-21.751
	c14.892,0.31,31.529-4.682,46.183-7.289c2.873-0.511,10.079-1.032,12.125-2.97c3.692-3.498,1.599-13.103,0.783-17.367
	c-1.07-5.592-3.702-13.993-7.588-18.233c-4.3-4.691-10.652-3.269-16.541-3.268c-10.388,0.002-20.927,0.808-30.81,4.38
	c-5.941,2.147-12.098,5.192-18.605,4.18c-5.99-0.932-9.73-5.022-14.437-8.283C105.621,89.511,98.919,89.5,93.399,92.077z"/>
<g>
	<path style="fill:#E4EDF1;" d="M117.6,118.617c-3.999-4.528-9.781-5.498-15.163-7.641c-5.505-2.193-10.631-4.522-16.653-4.14
		c-3.776,0.239-5.004,4.858-1.89,6.977c9.824,6.686,19.47,18.696,32.643,13.054C119.859,125.445,119.579,120.858,117.6,118.617z"/>
	<path style="fill:#E4EDF1;" d="M191.798,117.909c-12.611-3.757-24.076,1.543-36.687,2.655c-8.966,0.791-19.152,0.81-25.936,7.779
		c-4.809,4.94-12.24,33.008-19.566,31.847c-3.331-0.528-5.661,3.777-2.412,5.72c13.291,7.949,22.665-5.461,29.139-15.844
		c1.515-2.429,2.858-5.761,4.969-7.744c3.594-3.378,9.199-2.794,13.807-3.107c12.957-0.88,26.606-3.295,38.289-9.048
		C198.786,127.514,197.009,119.461,191.798,117.909z"/>
</g>
<g>
	<path style="fill:#BEC9D2;" d="M129.985,187.263c0.018-0.736,0.048-1.478,0.118-2.246c0.29-3.202,1.247-7.47-0.709-10.285
		c-1.724-2.483-4.764-2.337-6.513,0c-2.08,2.781-2.074,8.044-2.497,11.415c-0.474,3.789-0.895,8.093,1.099,11.524
		c2.228,3.834,9.689,2.536,9.022-2.444C130.151,192.575,130.649,189.845,129.985,187.263z"/>
	<path style="fill:#BEC9D2;" d="M316.412,169.247c-3.286-4.117-9.529,1.291-7.041,5.435c-0.001,0-0.001,0-0.002,0
		c1.293,2.64-0.986,7.812-1.376,10.586c-0.347,2.463-0.687,4.975-0.79,7.46c-0.293,6.999,10.248,6.847,10.792,0
		c0.254-3.188,0.359-6.336,0.803-9.507C319.495,178.236,319.69,173.354,316.412,169.247z"/>
</g>
<path style="fill:#D92830;" d="M418.211,246.314c-12.13-4.035-26.323-0.607-38.786,0.245c-16.195,1.108-32.306,1.231-48.531,1.157
	c-32.306-0.147-64.617-0.274-96.922-0.613c-32.866-0.345-65.721-1.094-98.59-1.31c-32.242-0.212-65.326-1.753-97.273,3.381
	c-2.402,0.386-2.4,4.46,0,4.85c0.092,0.015,0.184,0.027,0.275,0.042c-0.513,1.393-0.56,2.93-0.591,4.632
	c-0.112,6.142,0.149,12.346-0.009,18.516c-0.377,14.803-0.338,29.558-0.137,44.365c0.199,14.698,0.789,29.36,0.594,44.059
	c-0.131,9.861-0.488,21.175,1.347,30.867c0.851,4.492,6.564,6.21,10.18,4.141c8.71-4.984,7.504-16.586,7.201-25.285
	c-0.531-15.232-0.221-30.42-1.083-45.66c-0.841-14.86-1.678-29.719-2.747-44.564c-0.639-8.848,0.255-20.938-3.94-29.541
	c27.159,3.344,54.902,3.223,82.158,4.201c32.86,1.178,65.712,2.123,98.59,2.661c31.673,0.519,63.355,0.814,95.033,1.012
	c15.597,0.097,31.177,0.332,46.755-0.58c13.797-0.808,28.681-3.913,42.435-1.918C423.652,262.347,427.734,249.481,418.211,246.314z"
	/>
<g>
	<path style="fill:#FFFFFF;" d="M62.783,404.254c-0.535-1.759-1.55-3.115-2.816-4.103c-1.211-1.975-2.767-3.715-4.748-4.977
		c-4.141-2.638-9.76-2.264-13.245,1.346c-0.076,0.078-0.127,0.169-0.2,0.248c-1.279,0.932-2.229,2.347-2.537,4.316
		c-0.022,0.138-0.032,0.274-0.052,0.412c-0.535,1.932-0.636,3.993-0.399,6.025c0.017,3.693,0.431,7.345,0.795,11.148
		c0.4,4.179,3.017,6.386,5.925,6.901c0.727,7.94,11.337,9.246,15.658,3.117C66.059,421.746,65.124,411.95,62.783,404.254z"/>
	<path style="fill:#FFFFFF;" d="M468.375,397.241c0.654-0.903,1.054-1.995,1.124-3.322c0.058-1.106-0.099-2.201-0.473-3.241
		c-2.203-6.14-9.918-7.256-13.599-1.777c-6.009,8.946-11.571,20.78-6.538,31.31c1.677,3.506,7.542,5.224,10.72,2.811
		c0.301-0.229,0.584-0.477,0.874-0.716c3.567-0.869,6.428-4.217,6.718-8.256c0.001-0.007,0-0.013,0-0.02
		C469.794,408.9,470.434,403.002,468.375,397.241z"/>
</g>
<g>
	<path style="fill:#E4EDF1;" d="M458.98,397.387c-0.592-5.872-8.931-6.055-9.277,0c-0.388,6.787-4.985,13.744-2.147,20.368
		c0.854,1.992,3.679,2.301,5.353,1.404C459.698,415.518,459.648,404.023,458.98,397.387z"/>
	<path style="fill:#E4EDF1;" d="M62.482,414.808c-0.044-3.097,0.077-6.16-0.281-9.246c-0.737-6.346-9.594-6.581-10.059,0
		c-0.45,6.375-4.211,14.123-0.229,19.98c2.629,3.866,9.152,3.662,10.409-1.36C63.115,421.017,62.527,418.009,62.482,414.808z"/>
</g>
<g>
	<path style="fill:#FFC950;" d="M125.978,404.881c7.501-4.878,19.058-7.897,27.521-11.445c7.773-3.26,15.354-6.645,22.93-10.374
		c7.501-3.693,12.172-7.888,20.394-8.156c11.853-0.386,23.633-0.119,35.449-0.665c19.585-0.906,39.168-1.858,58.75-2.833
		c5.529-0.275,43.45,2.617,33.813-13.529c-3.336-5.587-9.449-1.598-13.273-4.132c-5.184-3.434-0.858-6.696,0.453-11.134
		c2.419-8.19-2.526-23.078,2.985-29.758c5.672-6.861,21.674-7.328,29.522-12.136c-0.325,15.486,2.674,37.097,9.541,51.189
		c2.988,6.13,2.251,5.289,9.472,5.931c7.682,0.683,16.544-0.63,23.954,1.516c0.323,5.923-17.616,11.162-21.892,13.377
		c-22.635,11.723-45.941,23.212-69.043,33.875c-23.076,10.652-47.587,17.784-70.688,28.378
		c-13.025,5.973-27.043,10.571-39.673,17.256c-5.623,2.976-11.026,9.176-17.194,10.478c-1.714-10.293-4.348-19.549-8.64-29.41
		C155.654,422.499,140.015,401.759,125.978,404.881z"/>
	<path style="fill:#FFC950;" d="M431.86,267.949c-4.784,6.073-15.024,7.806-21.73,11.038c3.312,7.398,10.953,13.744,15.908,19.874
		c5.783,7.154,12.145,14.881,15.981,23.271c3.24,7.087,0.256,13.621,9.79,9.698c10.017-4.122,15.189-8.43,11.047-18.186
		C455.894,297.248,441.238,281.491,431.86,267.949z"/>
	<path style="fill:#FFC950;" d="M287.453,327.894c-0.329-1.505-0.868-2.796-1.546-3.937c0.444-2.017-0.863-4.16-2.853-4.707
		c-0.043-0.012-0.083-0.011-0.126-0.022c-1.061-1.015-2.449-1.673-3.758-1.516c-0.587,0.07-1.173,0.119-1.758,0.176
		c-5.921-1.75-13.223-1.319-18.78-0.927c-0.935,0.066-1.859,0.148-2.772,0.253c-0.532-0.08-1.064-0.153-1.595-0.242
		c-5.541-0.927-10.499-1.319-15.038,2.312c-1.786,1.429-1.674,4.852,0,6.294c0.849,0.732,1.675,1.128,2.602,1.637
		c-0.015,0.076-0.033,0.15-0.048,0.225c-0.14,0.546-0.235,1.098-0.3,1.653c-0.08,0.479-0.164,0.956-0.242,1.43
		c-0.281,0.737-0.51,1.514-0.681,2.332c-0.184,0.883-0.24,1.76-0.205,2.617c-0.732,4.241-1.244,8.752-0.306,12.852
		c2.44,10.673,20.231,9.233,28.578,8.823c7.248-0.355,13.093-3.145,16.353-9.928C287.645,341.671,288.769,333.908,287.453,327.894z"
		/>
</g>
<path style="fill:#FF7A49;" d="M278.739,300.922c-2.966-1.29-5.987-2.386-8.824-3.939c0.002-0.975,0.008-1.951-0.032-2.924
	c-0.151-3.579-3.121-7.379-7.061-7.061c-3.864,0.312-7.681,1.158-9.659,4.909c-1.426,2.705-0.295,5.04-0.604,7.62
	c0.221-1.851-0.858,0.878-1.542,1.545c-1.091,1.066-0.353,0.378-1.402,0.958c-1.596,0.882-2.722,1.622-3.513,2.628
	c-3.928,2.914-1.815,9.298,2.652,9.735c0.277,0.115,0.564,0.209,0.86,0.273c3.698,0.797,6.839-0.458,9.5-2.598
	c1.435,1.973,3.491,3.591,6.495,4.645c2.338,0.821,4.443,0.315,6.069-0.905C280.48,319.362,287.838,304.88,278.739,300.922z"/>
<path style="fill:#FFFFFF;" d="M172.677,341.453c0.742-1.512,1.23-3.259,1.385-5.311c0.247-3.29-2.991-6.085-6.09-6.09
	c-14.034-0.026-27.985,0.939-42.005,1.271c-3.435,0.082-5.747,4.622-2.953,7.13c0.532,0.403,1.03,0.836,1.504,1.292
	c-1.804,0.421-3.029,1.567-3.701,2.991c-2.872,0.938-2.91,5.136-0.438,6.621c-0.041,0.031-0.081,0.062-0.122,0.094
	c1.795,1.5,3.727,2.793,5.799,3.879c0.456,0.271,0.917,0.434,1.376,0.546c6.441,3.113,14.86,3.48,21.369,3.701
	c8.779,0.298,20.905,0.73,27.848-5.575C180.601,348.414,177.438,341.695,172.677,341.453z"/>
<g>
	<path style="fill:#FFBE4A;" d="M312.641,373.863c-19.553,0.964-39.096,0.651-58.639,1.548c-20.214,0.928-40.397,3.375-60.58,4.205
		c-4.454,0.183-4.467,6.762,0,6.93c20.973,0.785,41.457,1.086,62.468,0.77c19.281-0.29,39.298,2.076,58.296-2.037
		C320.551,383.901,319.199,373.539,312.641,373.863z"/>
	<path style="fill:#FFBE4A;" d="M257.539,339.758c-0.016-0.108-0.04-0.265-0.076-0.492c-0.001-0.002-0.001-0.003-0.001-0.005
		c1.197-4.942,1.478-10.419,1.684-15.076c0.426-9.624-14.157-11.381-16.631-2.251c-2.538,9.369-5.83,28.966,8.242,30.278
		c4.472,0.417,7.375-3.916,7.764-7.764c0.14-1.38-0.302-2.509-0.656-3.792C257.585,339.638,257.535,339.627,257.539,339.758z"/>
</g>
<path d="M103.18,441.264c-5.725,6.839-9.323,19.817-3.636,26.715c0.234,0.527,0.455,1.056,0.742,1.572
	c5.907,10.585,20.628,12.008,30.022,5.431c10.84-7.589,11.318-23.622,3.709-33.669C126.022,430.754,111.465,431.367,103.18,441.264z
	 M111.474,471.545c-0.776-0.266-1.509-0.596-2.198-0.981c0.018-0.389-0.117-0.786-0.518-1.125c-8.073-6.826-6.52-17.845,0.65-24.867
	c9.829-9.63,22.011-0.337,22.549,11.456C132.461,467.066,122.128,475.185,111.474,471.545z"/>
<path d="M365.802,441.264c-5.725,6.839-9.323,19.817-3.636,26.715c0.234,0.527,0.455,1.056,0.743,1.572
	c5.907,10.585,20.628,12.008,30.022,5.431c10.84-7.589,11.318-23.622,3.709-33.669C388.645,430.754,374.088,431.367,365.802,441.264
	z M374.097,471.545c-0.776-0.266-1.509-0.596-2.197-0.981c0.018-0.389-0.117-0.786-0.518-1.125
	c-8.073-6.826-6.52-17.845,0.65-24.867c9.829-9.63,22.011-0.337,22.549,11.456C395.083,467.066,384.751,475.185,374.097,471.545z"/>
<path d="M497.923,433.976c-4.045-8.83-13.064-11.719-22.034-12.821c2.833-5.51,2.227-12.5,1.991-18.546
	c-0.357-9.176-0.428-18.237-0.141-27.426c0.538-17.185,4.527-37.195-0.028-54.038c-4.463-16.504-19.876-29.332-29.665-42.731
	c-4.88-6.68-9.61-19.161-16.789-26.012c8.8-0.192,18.518-1.088,24.039-7.143c7.34-8.049,6.812-24.847,2.171-34.027
	c-5.539-10.953-17.74-12.298-28.685-13.622c-35.244-4.263-70.444-2.016-105.704-1.263c-0.4-0.021-0.802-0.032-1.203-0.052
	c-0.644-4.891-0.33-9.38-0.114-14.336c0.179-4.096-0.033-8.188-0.354-12.271c4.366-1.576,8.725-3.209,13.203-4.288
	c8.82-2.126,17.306-5.579,22.046-13.849c2.901-5.063,2.733-11.079,7.592-15c3.885-3.135,8.942-4.794,12.9-8.066
	c6.986-5.775,11.814-13.433,11.48-22.742c-0.334-9.34-7.604-16.352-4.613-25.644c3.19-9.914,5.147-19.067,0.344-28.979
	c-2.284-4.713-5.601-8.666-9.639-11.966c-2.716-2.222-7.536-3.81-9.67-6.418c-1.957-2.393-2.117-6.465-3.319-9.281
	c-1.927-4.515-4.801-8.276-8.62-11.362c-6.142-4.963-14.644-8.111-22.55-8.244c-5.849-0.098-11.477,2.19-17.275,1.445
	c-6.508-0.837-12.738-3.7-19.277-4.716c-10.092-1.568-20.554-0.021-29.221,5.596c-3.315,2.148-6.338,4.865-8.563,8.136
	c-1.995,2.933-1.486,3.953-5.064,5.28c-2.37,0.879-6.692,0.072-9.27,0.408c-10.395,1.357-20.844,6.397-28.355,13.761
	c-4.041,3.961-4.395,7.508-6.603,12.176c-3.128,6.611-10.425,5.335-15.947,8.598c-11.711,6.921-15.899,21.442-10.918,32.761
	c-2.387-0.147-4.785-0.085-7.08,0.109c-11.429,0.964-22.406,4.519-33.449,7.379c-3.389,0.877-8.408,3.419-11.792,2.462
	c-2.803-0.792-6.178-4.606-8.663-6.213c-0.755-0.487-1.511-0.94-2.272-1.361c-3.356-2.954-7.725-4.944-12.078-5.703
	c-9.944-1.734-19.92,3.727-25.476,11.804c-11.987,17.423,0.41,33.943,16.836,40.263c-7.602,12.579-6.679,30.382,7.028,39.072
	c4.33,2.745,9.342,3.698,14.285,3.25c-0.219,2.775-0.249,5.582-0.328,8.292c-0.09,3.059-0.385,6.403,0.184,9.475
	c-0.152-0.002-0.303-0.001-0.455-0.003c-18.732-0.272-37.451-2.01-56.193-1.239c-13.579,0.559-31.681,0.663-41.497,11.606
	c-7.584,8.456-9.354,23.721-3.108,33.484c3.36,5.253,8.359,7.441,13.852,8.361c-2.568,21.918-1.148,44.752-1.178,66.703
	c-0.035,25.196,1.006,50.386,1.742,75.568c0.309,10.557-2.735,25.419,0.236,36.396c-8.283,2.522-14.799,7.72-16.553,17.086
	c-2.07,11.052,2.047,21.229,13.04,24.808c11.514,3.747,28.784,6.906,40.676,3.525c6.58,25.982,33.298,41.992,60.183,39.287
	c26.148-2.631,41.668-22.453,45.134-44.812c8.543,3.66,18.764,3.008,27.899,2.816c15.029-0.315,30.084-0.173,45.117-0.331
	c15.912-0.167,31.824-0.115,47.736-0.09c7.245,0.012,14.501-0.089,21.744,0.072c4.987,0.111,9.632,0.63,13.952-1.097
	c4.65,28.411,32.75,46.289,61.04,43.443c25.903-2.606,41.368-22.086,45.024-44.189c14.393,3.979,34.049,4.393,46.897-1.338
	C494.493,460.851,503.928,447.089,497.923,433.976z M436.957,284.896c7.931,11.488,21.276,23.423,26.099,36.949
	c-2.688,1.3-5.275,2.942-7.72,4.349c-2.568,1.476-6.253,3.104-8.553,5.493c-2.021-10.82-8.059-19.057-14.741-28.285
	c-5.975-8.249-11.877-16.556-17.56-25.01c3.826-0.33,7.777-2.509,11.2-3.98c1.214-0.522,2.609-1.056,3.974-1.682
	C431.907,276.883,434.237,280.956,436.957,284.896z M414.939,342.667c4.397,5.303,15.358,7.437,22.564,7.952
	c-2.281,3.469-6.228,3.201-11.574,3.247c-7.569,0.065-15.159,0.667-22.724,0.938c-0.624,0.022-1.247,0.031-1.871,0.052
	c1.371-3.242,1.564-7.19,2.089-10.615c1.215-7.917,3.549-15.602,4.444-23.549c3.163-0.098,6.294-0.063,9.445,0.109
	C414.4,327.713,409.959,336.661,414.939,342.667z M421.188,338.986c-5.292-3.878,1.442-15.032,3.29-20.092
	c0.54-1.477-0.611-3.366-2.102-3.701c-5.838-1.313-11.692-1.267-17.655-1.229c-2.008,0.013-3.219,1.572-3.429,3.429
	c-1.35,11.986-6.454,25.224-5.438,37.615c-5.129,0.13-10.259,0.233-15.39,0.313c-0.019-0.274-0.063-0.554-0.154-0.845
	c-4.287-13.784-3.808-28.882-10.041-42.089c-4.403-9.33-10.908-9.96-18.93-7.74c-0.673-5.513-1.25-11.066-1.153-16.598
	c0.083-4.603-0.277-9.921,3.071-13.382c2.837-2.932,6.733-2.58,10.661-3.048c5.21-0.621,10.483-1.317,15.774-1.852
	c0.25,0.001,0.499-0.009,0.749-0.008c6.453,0.038,14.895-1.639,19.987,3.1c4.868,4.531,8.5,11.962,12.275,17.323
	c4.827,6.858,9.773,13.63,14.737,20.389c7.456,10.146,13.503,20.162,12.042,33.194C433.818,341.993,425.938,342.467,421.188,338.986
	z M372.698,355.877c-3.763,0.482-7.816,0.998-10.742,0.077c-7.336-2.309-5.874-13.976-6.593-20.028
	c-1.023-8.607-2.285-17.184-3.34-25.788c-0.026-0.209-0.052-0.419-0.078-0.628c2.769-0.004,5.403,0.116,8.033,1.763
	c4.925,3.083,6.074,9.643,7.271,15.177C369.358,336.198,368.433,346.719,372.698,355.877z M191.032,71.153
	c5.24-8.633,14.251-5.693,21.343-10.868c6.792-4.956,4.388-12.507,8.969-18.714c6.246-8.461,18.754-10.73,28.4-9.982
	c6.839,0.53,10.796-0.188,15.36-5.456c7.621-8.797,15.453-12.501,27.483-10.314c8.328,1.514,15.771,4.036,24.386,3.222
	c9.311-0.88,17.6-3.965,26.284,1.682c7.09,4.611,6.361,11.558,10.173,18.116c3.007,5.172,8.884,6.867,13.198,10.657
	c15.324,13.462-1.824,28.99,4.436,44.9c3.454,8.776,6.355,15.245-1.517,22.43c-5.912,5.396-14.586,7.009-19.377,13.695
	c-5.568,7.77-3.491,16.542-14.048,20.321c-7.812,2.797-15.946,4.52-23.796,7.404c-11.941,4.386-24.098,2.568-35.809-1.493
	c-9.235-3.203-17.518-1.191-26.986-0.443c-11.708,0.925-19.394-4.584-29.586-9.065c-8.846-3.889-16.482-3.945-23.997-10.312
	c3.72-2.816,6.209-6.906,6.686-12.921c0.678-8.531-0.51-22.176-5.955-29.221c-1.764-2.283-3.966-3.928-6.414-5.094
	C187.467,83.864,187.54,76.906,191.032,71.153z M314.516,195.997c-2.221-0.072-4.444-0.135-6.668-0.181
	c1.425-3.968,1.046-10.04,1.251-13.288c0.19-3.006,0.316-6.091-0.027-9.082c2.373-0.492,4.709-1.167,7.031-1.922
	c-0.298,4.586-0.598,9.169-1.18,13.736C314.499,188.592,313.77,192.543,314.516,195.997z M301.33,195.705
	c-41.177-0.27-82.382-0.291-123.559,0.059c-14.069,0.119-28.15,0.362-42.227,0.409c0.743-6.729,0.34-13.936,0.6-20.505
	c0.066-1.672,0.339-4.589,0.023-7.197c2.18-2.758,3.835-5.965,4.714-9.259c0.761-2.851,0.286-5.25,0.55-8.059
	c0.448-4.768,2.161-5.18,6.943-6.234c9.383-2.068,24.401-0.731,36.277-3.286c0.118,0.669,0.331,1.353,0.704,2.044
	c4.437,8.242,11.247,11.922,20.171,14.088c11.736,2.849,21.152,10.825,33.322,12.428c10.039,1.322,20.239-3.228,30.068-1.293
	c5.963,1.174,11.359,4.032,17.49,4.95c5.742,0.86,11.493,0.966,17.248,0.381c-0.182,3.719-0.679,7.422-1.22,11.139
	C301.993,188.382,300.641,192.468,301.33,195.705z M108.261,162.851c-8.209-7.502-4.158-20.121,3.345-26.021
	c4.458-3.506,0.474-10.341-4.347-10.493c-11.25-0.355-27.084-8.988-20.533-22.455c2.623-5.391,8.053-9.391,13.929-10.145
	c8.001,2.175,12.367,6.595,19.067,11.524c3.355,2.469,5.991,3.232,10.255,2.961c9.62-0.612,19.825-4.975,29.22-7.206
	c6.866-1.631,22.873-6.4,28.538,0.467c2.612,3.166,2.873,10.517,3.307,14.269c0.744,6.418,2.067,12.198-5.064,14.62
	c-10.099,3.429-22.436,2.62-33.034,3.859c-7.778,0.909-18.673,2.333-21.777,10.911c-1.286,3.554,0.023,7.375-1.44,10.961
	c-1.361,3.335-4.636,6.106-7.765,7.724C117.393,166.187,112.181,166.433,108.261,162.851z M128.886,196.167
	c-1.819-0.003-3.638,0.008-5.457-0.005c0.437-3.449-0.065-7.252-0.069-10.567c-0.004-2.801,0.124-5.647-0.023-8.458
	c2.492-0.797,4.875-1.938,7.058-3.363c-0.056,1.857-0.089,3.602-0.24,4.891C129.506,184.188,128.598,190.361,128.886,196.167z
	 M26.452,226.652c-0.067-7.78,4.101-12.859,11.446-14.901c15.837-4.404,33.833-3.322,50.099-2.867
	c33.938,0.951,67.78,0.169,101.722-0.392c38.922-0.644,77.864-1.072,116.791-1.435c33.266-0.31,66.962,2.527,100.252,1.081
	c11.093,0.456,22.821,1.304,32.356,5.106c4.358,1.738,5.76,4.071,6.28,8.784c0.335,3.038,1.15,11.226-1.331,13.705
	c-2.392,2.39-9.476,1.778-12.477,1.964c-9.359,0.581-18.729,0.995-28.101,1.324c-18.104,0.636-36.222,0.885-54.337,0.928
	c-35.598,0.084-71.192-0.623-106.789-0.757c-68.411-0.258-136.824-0.111-205.187-3.028C30.2,235.866,26.518,234.343,26.452,226.652z
	 M66.292,460.499c-0.377,0.048-0.763,0.118-1.169,0.247c-8.505,2.708-18.446,0.093-26.996-1.403
	c-7.939-1.389-17.801-5.404-11.172-15.592c7.315-11.237,31.52-2.991,41.781-1.066C68.433,444.046,65.774,460.565,66.292,460.499z
	 M59.911,426.394c-4.81-0.877-10.049-1.423-15.238-1.362c-1.449-2.215-1.317-5.398-1.295-9.493
	c0.036-6.471,0.028-12.92-0.016-19.368c6.85-0.789,13.988-1.101,16.401,6.941C62.042,410.708,59.225,418.722,59.911,426.394z
	 M70.872,429.195c-1.017-0.353-2.119-0.69-3.259-1.017c0.344-10.455,2.476-25.648-5.234-33.808c-5.008-5.3-12.5-5.138-19.045-2.818
	c-0.083-7.825-0.243-15.653-0.516-23.517c-0.73-20.981-1.244-41.939-1.577-62.931c-0.292-18.481,0.662-37.766-2.557-56.116
	c2.37,0.029,4.725,0,6.983,0.033c20.165,0.298,40.336,1.449,60.502,1.912c42.044,0.967,84.083,1.265,126.136,1.511
	c41.638,0.244,83.264,1.462,124.904,1.439c20.66-0.011,41.323-0.332,61.965-1.216c1.468,4.893,4.609,9.18,7.048,13.662
	c-1.367,0.76-2.698,1.577-3.969,2.22c-3.36,1.701-7.672,3.492-9.805,6.791c-2.849-4.439-5.925-9.458-10.673-11.82
	c-5.32-2.647-11.677-1.317-17.323-0.923c-1.709,0.119-3.406,0.246-5.097,0.378c-6.107,0.313-12.237,1.1-18.262,1.734
	c-11.017,1.159-16.149,3.871-17.894,15.495c-0.877,5.845-0.94,11.834-0.575,17.867c-0.709-0.187-1.51-0.089-2.323,0.467
	c-4.419,3.018-9.486,4.411-14.459,6.232c-1.888,0.692-3.912,1.439-5.625,2.537c0.017-1.796,0.019-3.585,0-5.359
	c-0.109-9.972,0.741-24.136-5.906-32.459c-5.458-6.835-14.487-7.443-22.588-7.715c-13.589-0.457-27.257-0.098-40.856,0.711
	c-38.363-2.315-77.314,0.16-115.306,0.827c-10.656,0.187-21.125-0.254-31.75-0.662c-7.536-0.289-17.74-0.723-23.465,5.27
	c-5.22,5.464-5.203,14.578-5.211,21.565c-0.014,13.314,0.715,26.412,2.454,39.626c0.942,7.155,0.249,16.594,3.438,23.235
	c0.554,1.154,1.243,2.134,2.018,2.995c-8.214-0.182-16.296,1.087-20.5,6.623c-3.256,4.287-1.133,9.909,2.976,12.88
	c3.914,2.83,8.84,2.433,13.427,2.501c9.324,0.138,18.64,0.6,27.967,0.667c22.844,0.163,45.666,1.131,68.493,1.679
	c-8.215,3.448-16.357,7.92-23.557,10.906c-8.693,3.605-17.667,6.557-26.536,9.73c-4.796-0.535-9.656-0.448-14.403,0.33
	c-10.304,1.689-18.452,6.752-24.665,13.89c-5.106,4.47-9.366,10.185-12.627,16.484C72.902,430.24,71.999,429.586,70.872,429.195z
	 M176.212,345.614c-1.413,2.121-2.864,4.215-4.162,6.432c-0.393,0.673-0.536,1.32-0.51,1.918
	c-15.627-0.385-31.231-0.813-46.882-0.637c-2.188-2.666-4.552-5.44-6.444-8.417C137.492,343.214,156.892,344.756,176.212,345.614z
	 M122.703,332.529c16.573,2.138,33.174,1.23,49.899,1.474c-0.745,1.287-1.335,2.673-1.731,4.203
	c-15.502-0.698-30.983-1.497-46.48-0.917C124.081,335.546,123.481,333.999,122.703,332.529z M140.151,361.83
	c15.158,0.101,30.311,1.008,45.466,1.33c28.373,0.603,56.893,1.058,85.267,0.521c10.51-0.199,21.875-2.541,32.76-3.022
	c4.272-0.189,12.945-1.432,16.185,1.781c3.382,3.353,2.506,5.634-2.138,6.207c-1.953,0.394-3.922,0.683-5.907,0.867
	c-14.393,1.758-28.994,0.869-43.456,1.284c-32.658,0.938-65.249,3.177-97.932,1.713c-31.284-1.401-62.583-1.005-93.866-2.081
	c-5.314-0.183-11.154-3.296-4.087-5.706c3.536-1.206,7.424-1.457,11.105-1.844c4.61-0.484,9.18-1.21,13.755-1.815
	c1.028,0.129,2.048,0.242,3.045,0.351C113.578,362.855,126.885,361.741,140.151,361.83z M262.413,305.748
	c0.118-0.06,0.23-0.141,0.334-0.244c3.095-3.093,6.219-3.993,10.224-1.688c1.853,1.066,3.468,2.639,4.433,4.563
	c0.761,1.518,0.838,3.129,1.225,4.701c-1.439,0.04-2.786,0.105-3.927,0.109c-3.628,0.01-7.246-0.084-10.863-0.204
	C264.314,310.782,263.483,307.975,262.413,305.748z M260.627,302.864c-1.76-2.189-4.225-3.557-6.915-4.059
	c0.322-1.076,0.503-2.235,0.876-3.28c1.032-2.89,2.976-5.804,6.265-6.187c4.921-0.572,6.347,3.545,7.825,7.556
	C264.891,297.12,261.344,298.942,260.627,302.864z M257.703,312.77c-4.623-0.167-9.249-0.307-13.886-0.289
	c-2.29-5.075,4.53-9.754,9.32-8.129C257.186,305.725,256.708,309.666,257.703,312.77z M269.367,320.796
	c3.105,0.11,13.985-1.685,16.042,0.608c2.838,3.164-1.562,15.017-2.423,18.48c-1.216,4.885-2.614,9.728-3.344,14.711
	c-7.466,0.246-14.976,0.164-22.375,0.191c-4.854,0.018-9.714-0.019-14.571-0.022c2.009-11.174,0.179-23.261-0.588-34.633
	C251.224,320.015,260.237,320.472,269.367,320.796z M310.963,303.796c-0.023,10.733-0.786,21.652-2.686,32.229
	c-1.8,10.016-4.961,16.615-16.074,17.762c-1.559,0.161-3.124,0.292-4.692,0.405c1.962-10.253,11.536-30.576,3.327-38.456
	c-1.397-1.341-3.384-2.035-5.562-2.378c1.742-6.318-4.828-12.964-10.328-15.362c0.825-8.175-6.674-15.838-15.126-14.794
	c-4.296,0.531-7.955,3.309-9.707,7.254c-0.883,1.991-1.961,5.717-1.317,8.439c-5.359,1.505-12.186,8.988-8.692,13.646
	c-0.67,0.017-1.338,0.022-2.008,0.048c-1.969,0.076-3.91,1.68-3.798,3.798c0.661,12.487,0.929,26.046,3.778,38.369
	c-16.855-0.035-33.717-0.151-50.556-0.442c-2.845-0.049-5.688-0.108-8.53-0.172c2.337-3.276,4.683-6.488,6.592-10.055
	c1.307-2.441-0.329-5.311-3.102-5.406c-1.662-0.057-3.324-0.13-4.986-0.197c1.48-1.681,2.761-3.504,4.535-5.316
	c2.146-2.193,0.524-5.775-2.441-5.893c-21.016-0.835-43.56,2.832-63.96-3.441c-2.872-0.883-6.261,2.833-4.219,5.489
	c2.177,2.831,4.47,5.575,6.807,8.28c-1.942,0.123-3.883,0.233-5.825,0.41c-2.199,0.201-4.547,2.267-3.616,4.747
	c1.772,4.723,4.731,8.172,8.541,10.78c-9.585,0.456-25.385,1.095-28.76-5.638c-1.236-2.468-0.752-6.346-1.023-9.076
	c-0.563-5.69-1.581-11.333-2.241-17.012c-1.117-9.602-1.499-19.153-1.554-28.813c-0.059-10.349-0.855-20.882,12.026-21.944
	c7.031-0.58,14.113,0.497,21.137,0.663c11.447,0.27,22.958-0.283,34.397-0.682c26.236-0.913,52.474-2.333,78.733-1.797
	c25.16,0.513,50.15,2.906,75.252,4.134C312.779,279.239,310.981,295.385,310.963,303.796z M138.168,495.731
	c-20.249,8.518-47.477-0.108-56.869-20.511c-5.917-12.852-3.577-27.999,2.417-40.392c3.897-8.059,9.138-14.328,15.746-18.767
	c13.438-4.96,29.398-4.227,41.25,3.223c13.352,8.393,20.051,24.386,19.801,39.79C160.265,474.39,152.801,489.575,138.168,495.731z
	 M151.93,410.888c-4.338-3.333-9.228-5.94-14.402-7.771c6.072-2.169,12.025-4.632,17.772-6.936
	c11.846-4.751,27.025-8.699,37.659-16.168c9.806,0.106,19.614,0.076,29.426-0.193c18.582-0.51,37.185-1.681,55.777-1.592
	c13.721,0.066,31.022,2.454,44.16-2.488c8.116-3.053,12.811-13.309,5.742-19.952c-3.805-3.576-9.369-4.757-15.301-4.71
	c1.699-2.73,3.057-6.049,3.985-10.123c2.071-9.085,3.021-18.643,3.344-28.089c3.617-0.384,7.571-2.348,10.872-3.338
	c4.275-1.282,8.415-2.737,12.18-5.157c1.033,9.986,2.909,19.996,3.997,29.576c0.924,8.147-1.066,23.341,7.168,28.368
	c4.537,2.769,10.646,1.929,15.672,1.663c4.53-0.24,9.069-0.314,13.61-0.368c-3.836,1.225-7.725,2.325-11.43,3.721
	c-8.523,3.211-16.822,7.095-25.122,10.835c-20.115,9.065-40.013,18.617-60.276,27.355c-38.081,16.421-75.668,33.399-112.897,51.643
	C173.846,439.852,166.772,422.288,151.93,410.888z M400.791,495.731c-20.249,8.518-47.477-0.108-56.869-20.511
	c-5.917-12.852-3.577-27.999,2.417-40.392c3.897-8.059,9.138-14.328,15.746-18.767c13.438-4.96,29.398-4.227,41.25,3.223
	c13.352,8.393,20.051,24.386,19.801,39.79C422.888,474.39,415.423,489.575,400.791,495.731z M422.98,418.987
	c-2.47-2.933-5.258-5.666-8.427-8.099c-11.458-8.802-26.756-12.568-41.019-10.231c-10.304,1.689-18.452,6.752-24.665,13.89
	c-11.485,10.054-18.709,26.384-19.8,41.563c-11.196-2.046-23.989-0.552-35.177-0.535c-15.257,0.024-30.514,0.014-45.77,0.213
	c-19.974,0.26-40.067,0.447-60.038,1.72c13.581-4.879,26.875-12.606,39.431-18.177c20.943-9.291,42.024-18.217,63.059-27.291
	c20.263-8.741,40.177-18.262,60.3-27.313c9.666-4.347,19.353-8.665,29.235-12.492c6.017-2.33,11.948-4.653,16.879-8.885
	c8.501-0.277,16.994-0.755,25.493-1.046c5.335-0.183,11.321,0.763,16.515-0.668c10.513-2.896,8.971-16.484,8.406-25.022
	c-0.022-0.337-0.065-0.66-0.095-0.992c3.524,0.201,7.429-2.068,10.485-3.403c2.176-0.951,4.668-1.92,7.063-3.059
	c2.405,14.655-0.675,31.542-0.836,46.023c-0.034,3.048-0.041,6.09-0.024,9.13c-7.209-2.006-13.941,1.519-17.563,9.217
	c-2.163,4.598-3.16,9.709-3.725,14.727c-0.356,3.177-1.06,7.298-0.811,10.976C435.671,418.664,429.008,417.986,422.98,418.987z
	 M464.468,420.194c0.004,0.063,0.019,0.118,0.025,0.18c-4.722-0.195-9.447-0.344-14.171-0.57c0.127-2.031-0.065-4.14-0.012-6.117
	c0.113-4.17,0.304-8.434,1.137-12.531c1.661-8.181,5.616-11.976,12.597-12.655c0.068,3.663,0.195,7.324,0.439,10.991
	C464.946,406.438,464.032,413.346,464.468,420.194z M484.673,447.303c-3.407,5.94-10.749,7.675-16.941,8.398
	c-10.273,1.199-21.063-0.248-31.226,1.686c0.022-9.204-1.947-18.484-6.03-26.882c8.239,0.613,17.021,0.118,24.531,0.528
	c8.087,0.442,17.186-0.464,24.837,2.635C486.013,436.166,488.21,441.135,484.673,447.303z"/>
<g>
</g>
<g>
</g>
<g>
</g>
<g>
</g>
<g>
</g>
<g>
</g>
<g>
</g>
<g>
</g>
<g>
</g>
<g>
</g>
<g>
</g>
<g>
</g>
<g>
</g>
<g>
</g>
<g>
</g>
</svg>
