<svg height="471pt" viewBox="-59 0 471 471.432" width="471pt" xmlns="http://www.w3.org/2000/svg"><path d="m295.160156 412.785156c0-30.183594-52.578125-54.648437-117.441406-54.648437-64.859375 0-117.4375 24.464843-117.4375 54.648437 0 30.179688 52.578125 54.648438 117.4375 54.648438 64.863281 0 117.441406-24.46875 117.441406-54.648438zm0 0" fill="#82d9ff"/><path d="m177.71875 471.433594c-68.09375 0-121.4375-25.761719-121.4375-58.648438 0-32.890625 53.34375-58.648437 121.4375-58.648437 68.105469 0 121.449219 25.757812 121.449219 58.648437 0 32.886719-53.351563 58.648438-121.449219 58.648438zm0-109.296875c-61.496094 0-113.4375 23.191406-113.4375 50.648437 0 27.453125 51.949219 50.648438 113.4375 50.648438s113.449219-23.195313 113.449219-50.648438c0-27.457031-51.960938-50.648437-113.449219-50.648437zm0 0" fill="#63312d"/><path d="m205.152344 4.007812h-53.746094v.160157c78.113281 1.671875 140.953125 65.390625 140.953125 143.902343 0 92.523438-144.0625 271.066407-144.0625 271.066407h56.855469s144.0625-178.550781 144.0625-271.066407c0-79.566406-64.496094-144.0625-144.0625-144.0625zm0 0" fill="#db785a"/><path d="m292.359375 148.070312c0 92.523438-144.0625 271.066407-144.0625 271.066407s-144.074219-178.03125-144.074219-271.066407c0-79.566406 64.503906-144.0625 144.066406-144.0625 79.558594 0 144.070313 64.496094 144.070313 144.0625zm0 0" fill="#f9a287"/><path d="m20.222656 148.070312c0-76.863281 60.25-139.484374 136.066406-143.664062-2.664062-.140625-5.296874-.398438-8-.398438-79.570312 0-144.066406 64.503907-144.066406 144.0625 0 93.035157 144.066406 271.066407 144.066406 271.066407s2.992188-3.710938 7.992188-10.175781c-30.183594-38.914063-136.058594-181.113282-136.058594-260.890626zm0 0" fill="#ffc8bb"/><path d="m148.289062 423.136719c-1.210937 0-2.351562-.542969-3.113281-1.488281-5.917969-7.3125-144.960937-180.207032-144.960937-273.585938 0-81.648438 66.425781-148.0625 148.066406-148.0625s148.0625 66.425781 148.0625 148.0625c0 92.867188-139.03125 266.242188-144.953125 273.578125-.742187.953125-1.886719 1.496094-3.101563 1.496094zm0-415.128907c-77.234374 0-140.066406 62.832032-140.066406 140.0625 0 83.027344 119.128906 238.035157 140.066406 264.632813 20.925782-26.65625 140.070313-182.070313 140.070313-264.632813 0-77.230468-62.832031-140.0625-140.070313-140.0625zm0 0" fill="#63312d"/><path d="m205.152344 423.136719h-56.855469v-8h54.933594c13.785156-17.382813 141.992187-181.425781 141.992187-267.066407 0-77.230468-62.832031-140.0625-140.0625-140.0625h-53.746094v-7.9999995h53.746094c81.648438 0 148.0625 66.4257815 148.0625 148.0624995 0 92.867188-139.03125 266.242188-144.949218 273.578126-.769532.945312-1.914063 1.488281-3.121094 1.488281zm0 0" fill="#63312d"/><path d="m223.71875 154.046875c0 41.660156-33.769531 75.433594-75.429688 75.433594-41.660156 0-75.433593-33.773438-75.433593-75.433594s33.773437-75.429687 75.433593-75.429687c41.660157 0 75.429688 33.769531 75.429688 75.429687zm0 0" fill="#f8f3f3"/><path d="m148.289062 233.480469c-43.800781 0-79.433593-35.632813-79.433593-79.433594s35.632812-79.429687 79.433593-79.429687c43.800782 0 79.429688 35.628906 79.429688 79.429687s-35.628906 79.433594-79.429688 79.433594zm0-150.863281c-39.386718 0-71.433593 32.046874-71.433593 71.429687 0 39.386719 32.046875 71.433594 71.433593 71.433594 39.382813 0 71.429688-32.039063 71.429688-71.433594 0-39.390625-32.039062-71.429687-71.429688-71.429687zm0 0" fill="#63312d"/></svg>